<svg width="230" height="76" xmlns="http://www.w3.org/2000/svg" xml:space="preserve" fill-rule="evenodd" stroke-linejoin="round" stroke-miterlimit="2" clip-rule="evenodd" viewBox="0 0 115 38">
  <path fill="#008bff" fill-rule="nonzero" d="M22.152 7.892h1.21v-3.6c0-1.512.972-2.748 2.163-2.748h.605V-.004h-.605c-1.862 0-3.373 1.92-3.373 4.296v3.6Z"/>
  <path fill="#008bff" fill-rule="nonzero" d="M24.92-.004h6.756v1.548h-6.757z"/>
  <path fill="#008bff" fill-rule="nonzero" d="M33.225 7.892h1.21v-3.6c0-2.376-1.513-4.296-3.374-4.296h-.605v1.548h.605c1.19 0 2.164 1.236 2.164 2.748v3.6ZM66.446 7.892h1.21v-3.6c0-1.512.972-2.748 2.163-2.748h.605V-.004h-.605c-1.861 0-3.373 1.92-3.373 4.296v3.6Z"/>
  <path fill="#008bff" fill-rule="nonzero" d="M69.213-.004h6.757v1.548h-6.757z"/>
  <path fill="#008bff" fill-rule="nonzero" d="M77.519 7.892h1.21v-3.6c0-2.376-1.513-4.296-3.374-4.296h-.605v1.548h.605c1.19 0 2.164 1.236 2.164 2.748v3.6ZM.004 19.892h1.21v-3.6c0-1.512.973-2.748 2.164-2.748h.604v-1.548h-.604c-1.862 0-3.374 1.92-3.374 4.296v3.6Z"/>
  <path fill="#008bff" fill-rule="nonzero" d="M2.772 11.996H9.53v1.548H2.772z"/>
  <path fill="#008bff" fill-rule="nonzero" d="M8.309 11.996h6.756v1.548H8.31z"/>
  <path fill="#008bff" fill-rule="nonzero" d="M13.846 11.996h6.756v1.548h-6.756zM22.152 5.66h1.219v14.232h-1.22zM36.598 13.544h.605v-1.548h-.605c-1.19 0-2.164-1.224-2.164-2.736v-3.6h-1.21v3.6c0 2.364 1.513 4.284 3.374 4.284Z"/>
  <path fill="#008bff" fill-rule="nonzero" d="M35.993 11.996h6.756v1.548h-6.756z"/>
  <path fill="#be8bff" fill-rule="nonzero" d="M44.299 19.892h1.21v-3.6c0-1.512.972-2.748 2.163-2.748h.605v-1.548h-.605c-1.862 0-3.373 1.92-3.373 4.296v3.6Z"/>
  <path fill="#be8bff" fill-rule="nonzero" d="M47.066 11.996h6.757v1.548h-6.757z"/>
  <path fill="#be8bff" fill-rule="nonzero" d="M55.372 19.892h1.21v-6.348h2.768v-1.548h-6.747v1.548h2.769v6.348Z"/>
  <path fill="#be8bff" fill-rule="nonzero" d="M58.14 11.996h6.756v1.548H58.14z"/>
  <path fill="#be8bff" fill-rule="nonzero" d="M66.446 19.892h1.21v-3.6c0-2.376-1.513-4.296-3.374-4.296h-.605v1.548h.605c1.19 0 2.164 1.236 2.164 2.748v3.6Z"/>
  <path fill="#008bff" fill-rule="nonzero" d="M80.892 13.544h.605v-1.548h-.605c-1.19 0-2.164-1.224-2.164-2.736v-3.6h-1.21v3.6c0 2.364 1.513 4.284 3.374 4.284Z"/>
  <path fill="#008bff" fill-rule="nonzero" d="M80.287 11.996h6.756v1.548h-6.756z"/>
  <path fill="#008bff" fill-rule="nonzero" d="M88.593 19.892h1.21v-3.6c0-2.376-1.513-4.296-3.374-4.296h-.605v1.548h.605c1.19 0 2.164 1.236 2.164 2.748v3.6ZM91.36 11.996h6.757v1.548H91.36z"/>
  <path fill="#008bff" fill-rule="nonzero" d="M96.897 11.996h6.756v1.548h-6.756z"/>
  <path fill="#008bff" fill-rule="nonzero" d="M102.434 11.996h6.756v1.548h-6.756z"/>
  <path fill="#008bff" fill-rule="nonzero" d="M110.74 19.892h1.21v-3.6c0-2.376-1.513-4.296-3.374-4.296h-.605v1.548h.605c1.19 0 2.164 1.236 2.164 2.748v3.6ZM.004 17.66h1.22v14.232H.003zM3.84 28.916h4.611v1.464h-4.61zM13.846 23.996h6.756v1.548h-6.756z"/>
  <path fill="#008bff" fill-rule="nonzero" d="M22.152 31.892h1.21V17.66h-1.21v6.336h-2.77v1.548h2.77v6.348ZM41.615 27.764V26.18l-3.487-1.368v-.108l3.487-1.356v-1.584l-4.725 2.208v1.572l4.725 2.22Z"/>
  <path fill="#be8bff" fill-rule="nonzero" d="M44.299 17.66h1.219v14.232h-1.22zM55.372 17.66h1.219v7.896h-1.22zM66.446 17.66h1.219v14.232h-1.22z"/>
  <path fill="#008bff" fill-rule="nonzero" d="M78.123 26.792c.889 0 1.607-.912 1.607-2.04 0-1.116-.718-2.04-1.607-2.04-.888 0-1.606.924-1.606 2.04 0 1.128.718 2.04 1.606 2.04ZM88.593 17.66h1.219v14.232h-1.22zM100.27 26.792c.889 0 1.607-.912 1.607-2.04 0-1.116-.718-2.04-1.606-2.04-.889 0-1.607.924-1.607 2.04 0 1.128.718 2.04 1.607 2.04ZM110.74 17.66h1.219v14.232h-1.22zM3.378 37.544h.604v-1.548h-.604c-1.191 0-2.164-1.224-2.164-2.736v-3.6H.004v3.6c0 2.364 1.512 4.284 3.374 4.284Z"/>
  <path fill="#008bff" fill-rule="nonzero" d="M2.772 35.996H9.53v1.548H2.772z"/>
  <path fill="#008bff" fill-rule="nonzero" d="M8.309 35.996h6.756v1.548H8.31z"/>
  <path fill="#008bff" fill-rule="nonzero" d="M13.846 35.996h6.756v1.548h-6.756zM25.525 37.544h.605v-1.548h-.605c-1.19 0-2.164-1.224-2.164-2.736v-3.6h-1.21v3.6c0 2.364 1.512 4.284 3.374 4.284Z"/>
  <path fill="#008bff" fill-rule="nonzero" d="M24.92 35.996h6.756v1.548h-6.757z"/>
  <path fill="#008bff" fill-rule="nonzero" d="M30.456 37.544h6.747v-1.548h-2.769V29.66h-1.21v6.336h-2.768v1.548Z"/>
  <path fill="#008bff" fill-rule="nonzero" d="M35.993 35.996h6.756v1.548h-6.756z"/>
  <path fill="#be8bff" fill-rule="nonzero" d="M47.672 37.544h.605v-1.548h-.605c-1.19 0-2.164-1.224-2.164-2.736v-3.6h-1.21v3.6c0 2.364 1.512 4.284 3.374 4.284Z"/>
  <path fill="#be8bff" fill-rule="nonzero" d="M47.066 35.996h6.757v1.548h-6.757z"/>
  <path fill="#be8bff" fill-rule="nonzero" d="M52.603 35.996h6.756v1.548h-6.756z"/>
  <path fill="#be8bff" fill-rule="nonzero" d="M58.14 35.996h6.756v1.548H58.14z"/>
  <path fill="#be8bff" fill-rule="nonzero" d="M63.677 37.544h.605c1.861 0 3.373-1.92 3.373-4.284v-3.6h-1.21v3.6c0 1.512-.973 2.736-2.163 2.736h-.605v1.548Z"/>
  <path fill="#008bff" fill-rule="nonzero" d="M69.213 35.996h6.757v1.548h-6.757z"/>
  <path fill="#008bff" fill-rule="nonzero" d="M74.75 35.996h6.756v1.548H74.75z"/>
  <path fill="#008bff" fill-rule="nonzero" d="M80.287 35.996h6.756v1.548h-6.756z"/>
  <path fill="#008bff" fill-rule="nonzero" d="M85.824 37.544h.605c1.861 0 3.373-1.92 3.373-4.284v-3.6h-1.21v3.6c0 1.512-.973 2.736-2.163 2.736h-.605v1.548ZM91.36 35.996h6.757v1.548H91.36z"/>
  <path fill="#008bff" fill-rule="nonzero" d="M96.897 35.996h6.756v1.548h-6.756zM114.113 37.544h.605v-1.548h-.605c-1.19 0-2.164-1.224-2.164-2.736v-3.6h-1.21v3.6c0 2.364 1.513 4.284 3.374 4.284Z"/>
</svg>
