<svg width="228" height="74" viewBox="0 0 114 37" xmlns="http://www.w3.org/2000/svg" xml:space="preserve" fill-rule="evenodd" clip-rule="evenodd" stroke-linejoin="round" stroke-miterlimit="2">
    <path d="M22.147 7.394v-3.6c0-.528.076-1.02.236-1.476.151-.456.369-.852.643-1.2s.586-.624.945-.828c.359-.192.746-.288 1.162-.288h.217v.552h-.217c-.35 0-.68.084-.992.252a2.745 2.745 0 0 0-.813.696c-.227.3-.416.636-.548 1.032a3.95 3.95 0 0 0-.198 1.26v3.6h-.435z" fill="#63c1ff" fill-rule="nonzero"/>
    <path fill="#63c1ff" fill-rule="nonzero" d="M24.915.002h5.972v.552h-5.972z"/>
    <path d="M33.22 7.394v-3.6a3.95 3.95 0 0 0-.198-1.26 3.564 3.564 0 0 0-.548-1.032 2.868 2.868 0 0 0-.813-.696 2.062 2.062 0 0 0-.992-.252h-.217V.002h.217c.416 0 .794.096 1.162.288.36.204.671.48.945.828.274.348.491.744.643 1.2.16.456.236.948.236 1.476v3.6h-.435zM66.441 7.394v-3.6c0-.528.076-1.02.236-1.476.152-.456.369-.852.643-1.2s.586-.624.945-.828c.359-.192.746-.288 1.162-.288h.217v.552h-.217c-.35 0-.68.084-.992.252a2.745 2.745 0 0 0-.813.696c-.226.3-.415.636-.548 1.032a3.95 3.95 0 0 0-.198 1.26v3.6h-.435z" fill="#63c1ff" fill-rule="nonzero"/>
    <path fill="#63c1ff" fill-rule="nonzero" d="M69.209.002h5.972v.552h-5.972z"/>
    <path d="M77.514 7.394v-3.6a3.95 3.95 0 0 0-.198-1.26 3.564 3.564 0 0 0-.548-1.032 2.868 2.868 0 0 0-.813-.696 2.062 2.062 0 0 0-.992-.252h-.217V.002h.217c.416 0 .794.096 1.162.288.36.204.671.48.945.828.274.348.492.744.643 1.2.16.456.236.948.236 1.476v3.6h-.435zM0 19.394v-3.6c0-.528.075-1.02.236-1.476.151-.456.368-.852.643-1.2.274-.348.585-.624.944-.828.36-.192.747-.288 1.163-.288h.217v.552h-.217c-.35 0-.68.084-.992.252a2.745 2.745 0 0 0-.813.696c-.227.3-.416.636-.548 1.032a3.95 3.95 0 0 0-.199 1.26v3.6H0z" fill="#63c1ff" fill-rule="nonzero"/>
    <path fill="#63c1ff" fill-rule="nonzero" d="M2.768 12.002H8.74v.552H2.768z"/>
    <path fill="#63c1ff" fill-rule="nonzero" d="M8.304 12.002h5.973v.552H8.304z"/>
    <path fill="#63c1ff" fill-rule="nonzero" d="M13.841 12.002h5.972v.552h-5.972zM22.147 5.162h.435v14.244h-.435zM36.206 12.554c-.416 0-.803-.096-1.162-.3a3.023 3.023 0 0 1-.945-.816 3.97 3.97 0 0 1-.643-1.212 4.39 4.39 0 0 1-.236-1.464v-3.6h.435v3.6c0 .444.066.864.198 1.26.133.384.322.732.548 1.02.237.3.501.528.813.708.312.168.643.252.992.252h.218v.552h-.218z"/>
    <path fill="#63c1ff" fill-rule="nonzero" d="M35.988 12.002h5.972v.552h-5.972z"/>
    <path d="M44.294 19.394v-3.6c0-.528.076-1.02.236-1.476.152-.456.369-.852.643-1.2s.586-.624.945-.828c.359-.192.746-.288 1.162-.288h.217v.552h-.217c-.35 0-.68.084-.992.252a2.745 2.745 0 0 0-.813.696c-.227.3-.415.636-.548 1.032a3.95 3.95 0 0 0-.198 1.26v3.6h-.435z" fill="#daa4ff" fill-rule="nonzero"/>
    <path fill="#daa4ff" fill-rule="nonzero" d="M47.062 12.002h5.972v.552h-5.972z"/>
    <path d="M55.367 19.394v-6.84H52.6v-.552h5.972v.552H55.8v6.84h-.434z" fill="#daa4ff" fill-rule="nonzero"/>
    <path fill="#daa4ff" fill-rule="nonzero" d="M58.135 12.002h5.972v.552h-5.972z"/>
    <path d="M66.441 19.394v-3.6a3.95 3.95 0 0 0-.198-1.26 3.564 3.564 0 0 0-.548-1.032 2.868 2.868 0 0 0-.813-.696 2.062 2.062 0 0 0-.992-.252h-.218v-.552h.218c.416 0 .794.096 1.162.288.36.204.671.48.945.828.274.348.491.744.643 1.2.16.456.236.948.236 1.476v3.6h-.435z" fill="#daa4ff" fill-rule="nonzero"/>
    <path d="M80.5 12.554c-.416 0-.803-.096-1.162-.3a3.023 3.023 0 0 1-.945-.816 3.97 3.97 0 0 1-.643-1.212 4.39 4.39 0 0 1-.236-1.464v-3.6h.435v3.6c0 .444.066.864.198 1.26.133.384.322.732.548 1.02.237.3.501.528.813.708.312.168.643.252.992.252h.218v.552H80.5z" fill="#63c1ff" fill-rule="nonzero"/>
    <path fill="#63c1ff" fill-rule="nonzero" d="M80.282 12.002h5.972v.552h-5.972z"/>
    <path d="M88.588 19.394v-3.6a3.95 3.95 0 0 0-.198-1.26 3.564 3.564 0 0 0-.548-1.032 2.868 2.868 0 0 0-.813-.696 2.062 2.062 0 0 0-.992-.252h-.218v-.552h.218c.416 0 .794.096 1.162.288.36.204.671.48.945.828.274.348.491.744.643 1.2.16.456.236.948.236 1.476v3.6h-.435zM91.356 12.002h5.972v.552h-5.972z" fill="#63c1ff" fill-rule="nonzero"/>
    <path fill="#63c1ff" fill-rule="nonzero" d="M96.893 12.002h5.972v.552h-5.972z"/>
    <path fill="#63c1ff" fill-rule="nonzero" d="M102.43 12.002h5.971v.552h-5.972z"/>
    <path d="M110.735 19.394v-3.6a3.95 3.95 0 0 0-.198-1.26 3.564 3.564 0 0 0-.548-1.032 2.868 2.868 0 0 0-.813-.696 2.062 2.062 0 0 0-.992-.252h-.217v-.552h.217c.416 0 .794.096 1.162.288.36.204.671.48.945.828.274.348.491.744.643 1.2.16.456.236.948.236 1.476v3.6h-.435zM0 17.162h.434v14.244H0zM3.448 28.418H8.06v.528H3.448zM13.841 24.002h5.972v.552h-5.972z" fill="#63c1ff" fill-rule="nonzero"/>
    <path d="M22.147 31.394v-6.84h-2.769v-.552h2.77v-6.84h.434v14.232h-.435zM40.958 27.17l-4.195-2.58v-.66l4.195-2.568v.588l-3.836 2.292v.048l3.836 2.292v.588z" fill="#63c1ff" fill-rule="nonzero"/>
    <path fill="#daa4ff" fill-rule="nonzero" d="M44.294 17.162h.435v14.244h-.435zM55.367 17.162h.435v7.392h-.435zM66.441 17.162h.435v14.244h-.435z"/>
    <path d="M77.732 25.166a.556.556 0 0 1-.36-.12.884.884 0 0 1-.264-.324 1.033 1.033 0 0 1-.095-.468c0-.168.029-.312.095-.456a.904.904 0 0 1 .255-.336.688.688 0 0 1 .369-.12c.132 0 .255.048.359.12a.834.834 0 0 1 .264.336c.066.132.095.288.095.456 0 .168-.029.324-.095.468a.965.965 0 0 1-.255.324.6.6 0 0 1-.368.12zM88.588 17.162h.435v14.244h-.435zM99.879 25.166a.556.556 0 0 1-.36-.12.884.884 0 0 1-.264-.324 1.033 1.033 0 0 1-.095-.468c0-.168.029-.312.095-.456a.904.904 0 0 1 .255-.336.688.688 0 0 1 .369-.12c.132 0 .255.048.359.12a.834.834 0 0 1 .264.336c.066.132.095.288.095.456 0 .168-.029.324-.095.468a.965.965 0 0 1-.255.324.6.6 0 0 1-.368.12zM110.735 17.162h.435v14.244h-.435zM2.986 36.554c-.416 0-.803-.096-1.163-.3a3.023 3.023 0 0 1-.944-.816 3.97 3.97 0 0 1-.643-1.212A4.39 4.39 0 0 1 0 32.762v-3.6h.434v3.6c0 .444.067.864.199 1.26.132.384.321.732.548 1.02.236.3.5.528.813.708.311.168.642.252.992.252h.217v.552h-.217z" fill="#63c1ff" fill-rule="nonzero"/>
    <path fill="#63c1ff" fill-rule="nonzero" d="M2.768 36.002H8.74v.552H2.768z"/>
    <path fill="#63c1ff" fill-rule="nonzero" d="M8.304 36.002h5.973v.552H8.304z"/>
    <path fill="#63c1ff" fill-rule="nonzero" d="M13.841 36.002h5.972v.552h-5.972zM25.133 36.554c-.416 0-.803-.096-1.162-.3a3.023 3.023 0 0 1-.945-.816 3.97 3.97 0 0 1-.643-1.212 4.39 4.39 0 0 1-.236-1.464v-3.6h.435v3.6c0 .444.066.864.198 1.26.132.384.321.732.548 1.02.236.3.501.528.813.708.312.168.642.252.992.252h.217v.552h-.217z"/>
    <path fill="#63c1ff" fill-rule="nonzero" d="M24.915 36.002h5.972v.552h-5.972z"/>
    <path d="M30.452 36.554v-.552h2.768v-6.84h.435v6.84h2.769v.552h-5.972z" fill="#63c1ff" fill-rule="nonzero"/>
    <path fill="#63c1ff" fill-rule="nonzero" d="M35.988 36.002h5.972v.552h-5.972z"/>
    <path d="M47.28 36.554c-.416 0-.803-.096-1.162-.3a3.023 3.023 0 0 1-.945-.816 3.97 3.97 0 0 1-.643-1.212 4.39 4.39 0 0 1-.236-1.464v-3.6h.435v3.6c0 .444.066.864.198 1.26.133.384.321.732.548 1.02.237.3.501.528.813.708.312.168.642.252.992.252h.217v.552h-.217z" fill="#daa4ff" fill-rule="nonzero"/>
    <path fill="#daa4ff" fill-rule="nonzero" d="M47.062 36.002h5.972v.552h-5.972z"/>
    <path fill="#daa4ff" fill-rule="nonzero" d="M52.599 36.002h5.972v.552h-5.972z"/>
    <path fill="#daa4ff" fill-rule="nonzero" d="M58.135 36.002h5.972v.552h-5.972z"/>
    <path d="M63.672 36.554v-.552h.218c.35 0 .68-.084.992-.252.302-.18.576-.408.813-.708.226-.288.415-.636.548-1.02a3.95 3.95 0 0 0 .198-1.26v-3.6h.435v3.6a4.39 4.39 0 0 1-.236 1.464 3.97 3.97 0 0 1-.643 1.212 3.023 3.023 0 0 1-.945.816c-.368.204-.746.3-1.162.3h-.218z" fill="#daa4ff" fill-rule="nonzero"/>
    <path fill="#63c1ff" fill-rule="nonzero" d="M69.209 36.002h5.972v.552h-5.972z"/>
    <path fill="#63c1ff" fill-rule="nonzero" d="M74.746 36.002h5.972v.552h-5.972z"/>
    <path fill="#63c1ff" fill-rule="nonzero" d="M80.282 36.002h5.972v.552h-5.972z"/>
    <path d="M85.82 36.554v-.552h.217c.35 0 .68-.084.992-.252.302-.18.576-.408.813-.708.226-.288.415-.636.548-1.02a3.95 3.95 0 0 0 .198-1.26v-3.6h.435v3.6a4.39 4.39 0 0 1-.236 1.464 3.97 3.97 0 0 1-.643 1.212 3.023 3.023 0 0 1-.945.816c-.368.204-.746.3-1.162.3h-.218zM91.356 36.002h5.972v.552h-5.972z" fill="#63c1ff" fill-rule="nonzero"/>
    <path fill="#63c1ff" fill-rule="nonzero" d="M96.893 36.002h5.972v.552h-5.972zM113.721 36.554c-.416 0-.803-.096-1.162-.3a3.023 3.023 0 0 1-.945-.816 3.97 3.97 0 0 1-.643-1.212 4.39 4.39 0 0 1-.236-1.464v-3.6h.435v3.6c0 .444.066.864.198 1.26.133.384.322.732.548 1.02.237.3.501.528.813.708.312.168.643.252.992.252h.218v.552h-.218z"/>
</svg>
